<?xml version="1.0" encoding="iso-8859-1"?>
<!-- Generator: Adobe Illustrator 18.1.1, SVG Export Plug-In . SVG Version: 6.00 Build 0)  -->
<svg version="1.1" id="Capa_1" xmlns="http://www.w3.org/2000/svg" xmlns:xlink="http://www.w3.org/1999/xlink" x="0px" y="0px"
	 viewBox="0 0 23.742 23.742" style="enable-background:new 0 0 23.742 23.742;" xml:space="preserve">
<g>
<path style="fill:#010002;" d="M16.994,2.803C16.527,2.467,16,2.207,15.452,1.983c-0.863,1.025-2.141,1.689-3.585,1.689
		c-1.445,0-2.724-0.664-3.586-1.689c-0.549,0.225-1.074,0.484-1.543,0.82L0,8.41l3.978,3.978l1.015-1.016v7.766
		c0,1.447,0.958,2.621,2.139,2.621h9.478c1.182,0,2.139-1.174,2.139-2.621v-7.765l1.016,1.014l3.977-3.978L16.994,2.803z
		 M19.759,10.545l-2.317-2.316v10.908c0,0.754-0.44,1.318-0.836,1.318H7.129c-0.396,0-0.836-0.564-0.836-1.318V8.227l-2.316,2.318
		L1.93,8.498l5.604-4.662c0.143-0.101,0.299-0.195,0.473-0.289c1.078,0.916,2.441,1.428,3.861,1.428s2.78-0.512,3.859-1.428
		c0.175,0.094,0.33,0.188,0.474,0.289l5.604,4.662L19.759,10.545z" />
</g>
<g>
<path d="M4 12H20M12 4V20" stroke="#000000" stroke-width="2" stroke-linecap="round" stroke-linejoin="round" transform="scale(0.5) translate(12, 12)" />
</g>

</svg>