<?xml version="1.0" encoding="iso-8859-1"?>
<!-- Generator: Adobe Illustrator 18.1.1, SVG Export Plug-In . SVG Version: 6.00 Build 0)  -->
<svg version="1.1" id="Capa_1" xmlns="http://www.w3.org/2000/svg" xmlns:xlink="http://www.w3.org/1999/xlink" x="0px" y="0px"
	 viewBox="0 0 23.742 23.742" style="enable-background:new 0 0 23.742 23.742;" xml:space="preserve">

<g>
	<path style="fill:#010002;" d="M16.994,2.803C16.527,2.467,16,2.207,15.452,1.983c-0.863,1.025-2.141,1.689-3.585,1.689
		c-1.445,0-2.724-0.664-3.586-1.689c-0.549,0.225-1.074,0.484-1.543,0.82L0,8.41l3.978,3.978l1.015-1.016v7.766
		c0,1.447,0.958,2.621,2.139,2.621h9.478c1.182,0,2.139-1.174,2.139-2.621v-7.765l1.016,1.014l3.977-3.978L16.994,2.803z
		 M19.759,10.545l-2.317-2.316v10.908c0,0.754-0.44,1.318-0.836,1.318H7.129c-0.396,0-0.836-0.564-0.836-1.318V8.227l-2.316,2.318
		L1.93,8.498l5.604-4.662c0.143-0.101,0.299-0.195,0.473-0.289c1.078,0.916,2.441,1.428,3.861,1.428s2.78-0.512,3.859-1.428
		c0.175,0.094,0.33,0.188,0.474,0.289l5.604,4.662L19.759,10.545z"/>
</g>

<g transform="scale(0.12) translate(54, 60)">
	<path style="fill:#030104;" d="M65.449,6.169C59.748,2.057,52.588,0,43.971,0c-6.559,0-12.09,1.449-16.588,4.34
			C20.25,8.871,16.457,16.562,16,27.412h16.531c0-3.158,0.922-6.203,2.766-9.137c1.846-2.932,4.975-4.396,9.389-4.396
			c4.488,0,7.58,1.19,9.271,3.568c1.693,2.381,2.539,5.018,2.539,7.91c0,2.513-1.262,4.816-2.781,6.91
			c-0.836,1.22-1.938,2.342-3.307,3.369c0,0-8.965,5.75-12.9,10.368c-2.283,2.681-2.488,6.692-2.689,12.449
			c-0.014,0.409,0.143,1.255,1.576,1.255c1.433,0,11.582,0,12.857,0s1.541-0.951,1.559-1.362c0.09-2.098,0.326-3.167,0.707-4.377
			c0.723-2.286,2.688-4.283,4.893-5.997l4.551-3.141c4.107-3.199,7.385-5.826,8.83-7.883C72.264,33.562,74,29.393,74,24.443
			C74,16.373,71.148,10.281,65.449,6.169z M43.705,69.617c-5.697-0.17-10.398,3.771-10.578,9.951
			c-0.178,6.178,4.293,10.258,9.990,10.426c5.949,0.177,10.523-3.637,10.701-9.814C53.996,74,49.654,69.793,43.705,69.617z"/>
</g>
</svg>

