<svg xmlns="http://www.w3.org/2000/svg" width="456" height="456" viewBox="-50 50 275 100">
    <path d="m76.5,22.5c10.4082,-0.2964 20.7415,0.3702 31,2c0,7.3333 0,14.6667 0,22c-57.5912,-8.5751 -82.0912,16.0916 -73.5,74c4.7912,23.791 19.2912,36.624 43.5,38.5c14.7195,1.745 28.719,-0.588 42,-7c16.53,-12.728 23.197,-29.562 20,-50.5c2.38,-15.8241 -1.453,-29.8241 -11.5,-42c-0.832,-8.6858 -0.665,-17.3525 0.5,-26c20.347,12.9922 31.847,31.6589 34.5,56c2.911,23.799 -2.422,45.466 -16,65c-22.101,23.253 -48.9345,31.419 -80.5,24.5c-27.2221,-6.889 -45.0555,-23.722 -53.5,-50.5c-6.74116,-25.0984 -4.07449,-49.0984 8,-72c13.0796,-20.1256 31.5796,-31.459 55.5,-34z" />
</svg>
